<?xml version="1.0" standalone="no"?>
<!DOCTYPE svg PUBLIC "-//W3C//DTD SVG 20010904//EN"
 "http://www.w3.org/TR/2001/REC-SVG-20010904/DTD/svg10.dtd">
<svg version="1.0" xmlns="http://www.w3.org/2000/svg"
 width="428.000000pt" height="428.000000pt" viewBox="0 0 428.000000 428.000000"
 preserveAspectRatio="xMidYMid meet">

<g transform="translate(0.000000,428.000000) scale(0.100000,-0.100000)"
fill="#000000" stroke="none">
<path d="M2025 3829 c-480 -62 -872 -569 -998 -1289 -29 -171 -32 -596 -4
-765 112 -682 465 -1183 911 -1295 107 -27 265 -27 372 0 285 71 541 309 715
665 148 303 219 627 219 1000 0 533 -158 1013 -445 1348 -206 241 -502 370
-770 336z m220 -34 c175 -31 332 -119 480 -269 583 -591 659 -1825 157 -2571
-152 -226 -344 -378 -557 -440 -72 -22 -112 -27 -200 -28 -231 -1 -418 84
-610 277 -493 496 -637 1480 -329 2249 173 430 472 721 803 781 102 19 152 19
256 1z"/>
<path d="M1965 3776 c-432 -99 -787 -583 -894 -1216 -153 -905 216 -1818 816
-2022 216 -73 461 -38 662 96 332 221 571 677 637 1213 20 171 15 535 -10 683
-106 618 -419 1082 -823 1222 -75 27 -105 31 -208 34 -78 3 -141 -1 -180 -10z
m310 -23 c265 -58 518 -282 685 -604 33 -64 60 -119 60 -123 0 -3 -34 -6 -75
-6 -59 0 -75 -3 -75 -15 0 -11 16 -15 68 -17 l67 -3 0 -115 0 -115 -62 -3
c-46 -2 -61 -6 -57 -16 3 -9 -6 -16 -27 -20 -17 -3 -397 -6 -843 -6 l-811 0 3
148 3 147 49 103 c85 177 208 347 322 444 97 83 233 162 318 184 103 27 138
32 215 32 50 1 122 -6 160 -15z m-699 -1059 c27 -7 33 -38 8 -48 -9 -3 -85 -6
-170 -5 l-154 1 0 27 0 28 146 1 c80 1 156 -1 170 -4z m1370 0 c18 -5 24 -12
22 -28 -3 -20 -8 -21 -166 -23 -134 -1 -164 1 -169 13 -14 36 1 41 147 42 78
1 153 -1 166 -4z m-596 -112 c-22 -34 -40 -65 -40 -71 0 -5 -10 -31 -21 -58
-12 -26 -23 -55 -24 -63 -5 -42 -28 -90 -43 -90 -12 0 -13 -3 -5 -11 12 -12
-11 -59 -54 -112 -13 -16 -23 -37 -23 -48 0 -10 -5 -19 -11 -19 -6 0 -8 9 -3
23 4 12 7 57 6 99 -1 43 2 79 8 83 5 3 10 21 10 40 0 18 3 41 7 50 5 15 8 14
19 -6 13 -22 13 -21 8 18 -7 44 18 103 43 103 7 0 13 6 13 13 0 7 12 25 28 39
27 27 114 80 120 74 1 -2 -15 -31 -38 -64z m-807 42 c22 -4 27 -11 25 -27 -3
-21 -8 -22 -135 -24 l-133 -1 0 27 0 27 108 2 c59 1 120 -1 135 -4z m1370 0
c22 -4 27 -11 25 -27 -3 -21 -8 -22 -136 -24 -137 -1 -153 3 -139 40 5 13 199
22 250 11z m-1401 -70 c16 -5 17 -38 18 -470 0 -308 -3 -464 -10 -464 -5 0
-10 -4 -10 -10 0 -5 14 -10 30 -10 25 0 30 -4 30 -24 0 -22 -5 -25 -52 -30
-29 -4 -91 -5 -138 -4 l-85 3 -5 30 c-4 17 -11 29 -18 28 -29 -6 -46 84 -20
114 6 7 28 13 49 13 28 0 39 4 39 15 0 10 -11 15 -35 15 -19 0 -44 8 -55 17
-27 23 -26 69 1 84 20 10 20 12 -14 34 -38 26 -55 69 -36 91 6 8 26 21 44 30
25 12 31 20 28 38 -5 26 29 58 53 49 11 -4 14 8 14 55 0 38 -4 62 -12 64 -10
4 -10 13 0 45 7 22 12 96 12 165 l0 125 77 1 c43 1 85 -1 95 -4z m1380 0 c17
-5 18 -35 20 -472 1 -257 3 -447 5 -422 3 24 10 48 16 52 9 6 9 10 0 16 -19
12 -11 106 10 110 23 5 21 17 -4 34 -18 11 -20 20 -14 46 3 18 16 37 28 44
l22 12 -25 6 c-20 5 -25 12 -25 39 -1 33 11 49 33 45 6 -1 17 -2 23 -3 7 -1
10 -17 7 -41 -2 -22 0 -40 5 -40 4 0 21 -14 37 -30 26 -26 28 -33 18 -55 -6
-14 -23 -30 -38 -37 -21 -9 -26 -17 -22 -37 8 -42 20 -52 48 -39 35 16 59 -8
45 -45 -13 -33 -44 -36 -64 -6 -13 18 -18 19 -38 8 l-23 -12 22 -8 c53 -20 69
-67 30 -84 -14 -6 -24 -21 -26 -37 -3 -29 11 -37 25 -15 5 8 10 1 13 -21 6
-37 22 -44 30 -13 5 21 5 21 33 -2 l28 -22 -44 -125 c-53 -151 -142 -334 -202
-415 -24 -33 -51 -70 -60 -82 l-16 -23 -668 0 -668 0 -20 23 c-56 62 -202 315
-226 392 -3 11 -20 60 -36 108 -37 104 -37 108 -10 125 12 8 18 9 14 3 -4 -8
207 -11 726 -11 570 0 730 3 721 12 -15 15 -17 178 -2 178 6 0 10 5 10 11 0 5
-4 8 -9 4 -5 -3 -12 -1 -16 5 -4 6 11 10 39 10 83 0 76 -36 76 415 l0 402 77
1 c43 1 86 -1 95 -4z m75 -236 c-3 -8 -6 -5 -6 6 -1 11 2 17 5 13 3 -3 4 -12
1 -19z m30 -60 c-3 -8 -6 -5 -6 6 -1 11 2 17 5 13 3 -3 4 -12 1 -19z m-1689
-96 c2 -32 -1 -42 -13 -43 -8 -1 -20 -2 -27 -3 -6 -1 -15 12 -19 29 -6 21 -4
34 8 47 27 30 47 18 51 -30z m1682 -8 c13 -12 11 -17 -12 -40 -34 -34 -58 -26
-58 19 0 19 3 37 7 40 9 9 44 -2 63 -19z m-1803 -27 c4 -7 0 -8 -11 -4 -10 4
-22 7 -27 7 -5 0 -9 4 -9 9 0 12 38 2 47 -12z m1913 9 c0 -3 -4 -8 -10 -11 -5
-3 -10 -1 -10 4 0 6 5 11 10 11 6 0 10 -2 10 -4z m-930 -52 c0 -2 -17 -4 -37
-4 -24 0 -33 3 -25 9 12 7 62 4 62 -5z m0 -132 c-10 -4 -9 -6 1 -13 9 -5 6
-11 -13 -20 -45 -20 -55 -8 -57 69 l-2 71 33 3 c33 3 33 3 42 -52 7 -41 6 -55
-4 -58z m-987 101 c-7 -2 -19 -2 -25 0 -7 3 -2 5 12 5 14 0 19 -2 13 -5z m612
-209 c14 -15 25 -29 25 -30 0 -2 -16 -4 -35 -4 -30 0 -35 3 -35 23 0 22 7 37
17 37 2 0 15 -12 28 -26z m707 1 c3 -13 3 -27 0 -30 -8 -8 -662 -6 -662 3 0 4
-3 17 -6 30 l-6 22 335 0 335 0 4 -25z m-667 -85 c8 -16 15 -31 15 -35 0 -3
-22 -5 -50 -5 l-50 0 0 35 c0 33 2 35 35 35 28 0 37 -5 50 -30z m669 8 c13
-50 26 -48 -313 -48 -343 0 -331 -2 -331 51 0 18 11 19 319 19 l319 0 6 -22z
m-1268 -2 c16 -13 17 -18 7 -35 -7 -12 -13 -28 -13 -36 0 -13 -9 -15 -42 -13
-46 3 -57 17 -33 41 8 9 15 22 15 30 0 30 33 37 66 13z m633 -97 c6 -18 11
-34 11 -35 0 -2 -29 -4 -65 -4 l-65 0 0 35 0 35 54 0 c52 0 55 -1 65 -31z
m641 -4 l0 -35 -305 0 c-168 0 -305 1 -305 3 0 1 -4 17 -9 35 l-10 32 315 0
314 0 0 -35z m-470 -895 c0 -16 5 -30 11 -30 7 0 10 12 7 30 -3 20 0 30 8 30
20 0 34 -33 23 -53 -7 -12 -6 -22 5 -33 32 -32 7 -94 -38 -94 -54 0 -83 53
-52 96 10 13 11 23 4 31 -6 8 -6 19 2 32 16 30 30 26 30 -9z m-92 -2 c6 -7 12
-43 14 -81 3 -66 3 -67 -22 -67 -25 0 -25 1 -25 80 0 79 9 97 33 68z m274 -28
c-3 -26 0 -40 7 -40 8 0 9 -5 1 -19 -5 -11 -10 -31 -10 -45 0 -16 -6 -26 -15
-26 -10 0 -15 10 -15 30 0 27 -3 30 -30 30 -29 0 -30 2 -19 23 21 40 60 87 72
87 9 0 11 -13 9 -40z m104 -50 c-34 -96 -51 -124 -61 -99 -3 8 8 45 25 82 16
36 30 71 30 77 0 14 -43 13 -58 -2 -9 -9 -12 -9 -12 0 0 17 31 31 72 32 l36 0
-32 -90z"/>
<path d="M1330 2920 c0 -5 5 -10 10 -10 13 0 13 -87 0 -95 -22 -14 4 -25 56
-25 52 0 54 1 54 27 0 25 -1 25 -18 10 -35 -32 -45 -22 -40 43 l4 60 -33 0
c-18 0 -33 -4 -33 -10z"/>
<path d="M1450 2920 c0 -5 5 -10 10 -10 6 0 10 -22 10 -50 0 -38 4 -52 19 -60
51 -27 91 3 91 68 0 23 5 42 10 42 6 0 10 5 10 10 0 6 -10 10 -23 10 -21 0
-22 -4 -22 -57 0 -51 -2 -58 -20 -58 -18 0 -20 7 -20 58 l1 57 -33 0 c-18 0
-33 -4 -33 -10z"/>
<path d="M1628 2913 c-34 -40 -29 -91 12 -113 31 -17 100 -3 100 19 0 28 -12
33 -27 11 -31 -44 -70 -11 -61 51 4 33 41 37 62 7 l16 -22 0 29 c0 28 -3 30
-43 33 -32 2 -48 -2 -59 -15z"/>
<path d="M1750 2921 c0 -6 5 -13 10 -16 6 -3 10 -24 10 -45 0 -21 -4 -42 -10
-45 -25 -15 -5 -25 50 -25 57 0 60 1 60 25 0 27 -15 34 -24 10 -10 -26 -36
-18 -36 11 0 22 2 25 15 14 13 -11 15 -8 15 15 0 23 -2 26 -15 15 -13 -10 -15
-9 -15 9 0 23 19 28 38 9 9 -9 12 -7 12 10 0 20 -5 22 -55 22 -30 0 -55 -4
-55 -9z"/>
<path d="M1885 2860 c0 -59 3 -70 17 -70 20 0 32 16 18 25 -5 3 -10 21 -9 38
l0 32 22 -42 c11 -24 25 -43 29 -43 5 0 17 19 28 43 l19 42 0 -37 c1 -21 -4
-38 -10 -38 -5 0 -7 -4 -4 -10 3 -5 19 -10 35 -10 16 0 32 5 35 10 3 6 1 10
-4 10 -15 0 -14 93 1 108 9 9 5 12 -20 12 -29 0 -35 -5 -52 -42 l-19 -42 -16
42 c-14 34 -22 42 -44 42 -26 0 -26 -1 -26 -70z"/>
<path d="M2147 2870 c-31 -73 -31 -75 -9 -75 11 0 16 6 14 18 -2 12 4 17 18
17 17 0 20 -4 15 -20 -6 -18 -2 -19 70 -16 75 2 94 11 95 43 0 12 -4 16 -50
53 -20 15 -21 19 -8 20 9 0 20 -4 23 -10 10 -17 25 -11 25 10 0 16 -7 20 -33
20 -61 0 -78 -49 -27 -78 16 -9 30 -23 30 -29 0 -21 -24 -15 -39 10 l-15 22
-7 -25 c-6 -23 -9 -19 -34 38 -16 34 -31 62 -35 62 -4 0 -18 -27 -33 -60z m28
-10 c3 -5 1 -10 -4 -10 -6 0 -11 5 -11 10 0 6 2 10 4 10 3 0 8 -4 11 -10z"/>
<path d="M2358 2918 c15 -15 16 -108 1 -108 -5 0 -7 -4 -4 -10 3 -5 19 -10 35
-10 16 0 32 5 35 10 3 6 1 10 -4 10 -6 0 -11 8 -11 18 0 12 11 21 32 27 19 6
34 18 36 28 6 33 -17 47 -76 47 -44 0 -53 -3 -44 -12z m77 -28 c0 -7 -6 -15
-12 -17 -8 -3 -13 4 -13 17 0 13 5 20 13 18 6 -3 12 -11 12 -18z"/>
<path d="M2480 2920 c0 -5 5 -10 10 -10 6 0 10 -20 10 -44 0 -25 -4 -48 -10
-51 -20 -13 -9 -25 23 -25 l32 0 0 70 0 70 -32 0 c-18 0 -33 -4 -33 -10z"/>
<path d="M2581 2904 c-27 -35 -27 -59 4 -89 25 -25 42 -29 83 -19 16 5 22 14
22 33 l0 26 -19 -24 c-10 -14 -25 -22 -37 -19 -15 3 -19 12 -19 48 0 36 4 45
19 48 12 3 27 -5 37 -19 l19 -24 0 30 c0 28 -2 30 -44 33 -38 2 -47 -1 -65
-24z"/>
<path d="M2715 2860 c0 -69 0 -70 27 -70 15 0 30 5 33 10 3 6 1 10 -4 10 -6 0
-11 21 -11 50 0 28 5 50 10 50 6 0 10 5 10 10 0 6 -15 10 -32 10 l-33 0 0 -70z"/>
<path d="M2810 2910 c-29 -29 -26 -74 6 -99 35 -28 69 -26 99 4 30 30 31 54 4
89 -26 33 -79 36 -109 6z m75 -50 c0 -34 -4 -46 -17 -48 -23 -4 -41 33 -33 69
5 24 12 29 28 27 19 -3 22 -10 22 -48z"/>
<path d="M2227 2435 c-9 -20 -17 -43 -16 -53 0 -9 9 5 20 32 23 57 20 72 -4
21z"/>
<path d="M1326 1995 c4 -8 8 -15 10 -15 2 0 4 7 4 15 0 8 -4 15 -10 15 -5 0
-7 -7 -4 -15z"/>
<path d="M1318 1909 c-23 -24 -23 -29 2 -29 15 0 20 7 20 25 0 29 0 29 -22 4z"/>
<path d="M1360 1610 l-25 -8 27 -1 c15 -1 30 4 33 9 7 11 0 11 -35 0z"/>
<path d="M2940 1575 c0 -16 6 -25 15 -25 9 0 15 9 15 25 0 16 -6 25 -15 25 -9
0 -15 -9 -15 -25z"/>
<path d="M1222 1418 c3 -52 4 -53 37 -56 20 -2 37 2 42 10 12 19 8 98 -5 98
-7 0 -10 -17 -8 -45 3 -35 0 -46 -12 -51 -24 -9 -28 -1 -30 51 -1 29 -5 45
-14 45 -9 0 -12 -14 -10 -52z"/>
<path d="M1325 1415 c0 -43 3 -55 16 -55 12 0 15 8 11 33 l-4 32 21 -32 c11
-18 25 -33 30 -33 5 0 11 25 13 55 2 39 -1 55 -9 55 -8 0 -13 -13 -13 -32 l0
-33 -21 33 c-31 48 -44 41 -44 -23z"/>
<path d="M1428 1415 c-3 -50 -1 -55 17 -55 18 0 20 6 17 50 -5 64 13 66 31 3
8 -27 20 -48 27 -48 7 0 20 20 29 44 21 59 41 65 41 14 0 -22 -5 -44 -12 -51
-9 -9 3 -12 55 -12 l67 0 -5 28 -6 27 16 -27 c9 -16 23 -28 31 -28 14 0 14 3
-1 27 -12 18 -14 28 -7 31 18 6 14 39 -4 46 -9 3 -25 6 -37 6 -20 0 -22 -4
-19 -47 3 -47 3 -48 -27 -50 -25 -2 -31 2 -31 18 0 16 4 19 20 14 14 -5 20 -2
20 10 0 12 -6 15 -20 10 -16 -5 -20 -2 -20 15 0 17 5 21 20 17 11 -3 20 -1 20
4 0 5 -25 9 -57 9 -31 0 -54 -3 -50 -6 8 -8 -14 -65 -23 -59 -5 3 -11 19 -15
35 -6 26 -11 30 -40 30 -33 0 -33 0 -37 -55z m290 27 c2 -7 -3 -12 -12 -12 -9
0 -16 7 -16 16 0 17 22 14 28 -4z"/>
<path d="M1769 1454 c-12 -14 -9 -20 15 -41 21 -18 26 -27 18 -35 -8 -8 -15
-8 -27 2 -12 10 -15 10 -15 -4 0 -21 53 -22 71 0 11 14 9 20 -20 44 -23 18
-30 29 -22 34 6 4 18 2 26 -4 12 -10 15 -9 15 4 0 21 -43 21 -61 0z"/>
<path d="M1845 1415 l0 -55 56 0 c63 0 79 11 79 57 0 35 -21 53 -63 53 -20 0
-23 -4 -19 -25 6 -32 -5 -75 -19 -75 -7 0 -10 19 -7 50 2 39 0 50 -12 50 -12
0 -15 -13 -15 -55z m103 33 c22 -22 8 -78 -20 -78 -4 0 -8 20 -8 45 0 46 7 54
28 33z"/>
<path d="M2009 1414 c-24 -50 -24 -54 -7 -54 10 0 18 7 18 15 0 9 9 15 21 15
15 0 19 -5 15 -15 -4 -12 5 -15 48 -15 77 0 86 5 86 51 0 41 -18 59 -62 59
-21 0 -23 -3 -20 -50 5 -66 -13 -66 -40 0 -11 28 -23 50 -27 49 -3 0 -18 -25
-32 -55z m149 34 c22 -22 8 -78 -20 -78 -4 0 -8 20 -8 45 0 46 7 54 28 33z
m-108 -28 c0 -5 -4 -10 -10 -10 -5 0 -10 5 -10 10 0 6 5 10 10 10 6 0 10 -4
10 -10z"/>
<path d="M2307 1445 c3 -13 0 -38 -5 -55 -10 -26 -9 -30 8 -30 16 0 18 5 13
37 -7 43 8 39 27 -7 21 -50 40 -38 40 25 0 38 -4 55 -13 55 -9 0 -12 -12 -9
-37 l3 -38 -22 38 c-26 43 -49 49 -42 12z"/>
<path d="M2442 1453 c-5 -10 -17 -35 -25 -55 -14 -33 -14 -38 -1 -38 7 0 14 7
14 15 0 8 9 15 20 15 11 0 20 -7 20 -15 0 -8 9 -15 19 -15 18 0 18 3 -6 53
-31 64 -29 63 -41 40z m18 -33 c0 -5 -4 -10 -10 -10 -5 0 -10 5 -10 10 0 6 5
10 10 10 6 0 10 -4 10 -10z"/>
<path d="M2518 1445 c-8 -18 -9 -35 -2 -53 8 -24 15 -27 64 -30 l55 -3 0 56
c0 42 -3 55 -15 55 -12 0 -14 -11 -12 -50 4 -45 2 -50 -16 -50 -39 0 -52 11
-52 45 0 39 14 52 35 35 12 -10 15 -9 15 4 0 11 -9 16 -30 16 -23 0 -33 -6
-42 -25z"/>
<path d="M2661 1451 c-26 -48 -10 -91 35 -91 28 0 35 4 40 26 11 41 -7 78 -38
82 -18 2 -30 -3 -37 -17z m54 -10 c8 -26 -4 -71 -20 -71 -16 0 -28 45 -20 71
4 10 12 19 20 19 8 0 16 -9 20 -19z"/>
<path d="M2755 1415 c0 -45 3 -55 17 -55 14 0 15 5 7 32 -12 45 -3 47 17 4 26
-54 44 -47 44 19 0 59 -17 76 -22 23 l-3 -33 -18 33 c-27 49 -42 41 -42 -23z"/>
<path d="M2884 1433 c-9 -21 -20 -46 -25 -55 -8 -14 -6 -18 10 -18 14 0 19 5
15 15 -4 10 0 15 15 15 12 0 21 -6 21 -15 0 -12 13 -15 60 -15 49 0 60 3 60
16 0 14 -3 14 -15 4 -24 -20 -38 1 -33 49 3 32 0 41 -12 41 -12 0 -14 -10 -12
-50 5 -63 -11 -65 -34 -5 -9 25 -21 48 -26 51 -4 3 -16 -12 -24 -33z m26 -13
c0 -5 -5 -10 -11 -10 -5 0 -7 5 -4 10 3 6 8 10 11 10 2 0 4 -4 4 -10z"/>
<path d="M2020 1250 c-23 -23 -26 -72 -6 -89 8 -7 27 -11 43 -9 26 3 28 6 28
52 0 42 -3 50 -23 57 -17 6 -27 4 -42 -11z m48 -42 c-2 -30 -8 -43 -18 -43
-10 0 -16 13 -18 43 -3 37 -1 42 18 42 19 0 21 -5 18 -42z"/>
<path d="M2248 1263 c-20 -5 -31 -37 -26 -79 3 -25 8 -29 40 -32 32 -3 38 0
43 21 14 55 -15 100 -57 90z m40 -43 c2 -14 -4 -34 -12 -45 -14 -17 -17 -18
-26 -5 -11 17 -13 63 -3 74 14 14 38 0 41 -24z"/>
<path d="M1709 1205 l-25 -55 23 0 c16 0 21 4 17 15 -4 11 0 15 16 15 15 0 20
-4 16 -15 -4 -12 7 -14 67 -12 l72 2 5 45 c4 33 10 46 23 48 14 2 17 -5 17
-42 0 -26 -5 -46 -12 -49 -7 -3 3 -6 22 -6 26 -1 31 2 22 11 -7 7 -12 30 -12
51 0 34 3 39 20 34 11 -3 20 -1 20 4 0 5 -27 9 -60 9 l-60 0 0 -44 c0 -76 -41
-73 -43 3 -3 62 -27 54 -27 -9 0 -27 -4 -50 -9 -50 -4 0 -18 23 -29 50 -12 28
-25 50 -29 50 -4 0 -20 -25 -34 -55z m37 -2 c-10 -10 -19 5 -10 18 6 11 8 11
12 0 2 -7 1 -15 -2 -18z"/>
<path d="M2114 1251 c3 -5 2 -30 -3 -55 -8 -45 -8 -46 18 -45 14 0 20 3 14 6
-7 2 -13 21 -12 41 l0 37 22 -42 c30 -61 47 -56 47 12 0 59 -17 76 -22 23 l-3
-33 -18 33 c-10 17 -24 32 -33 32 -8 0 -13 -4 -10 -9z"/>
<path d="M2325 1205 c0 -43 3 -55 16 -55 12 0 15 8 12 33 l-3 32 10 -32 c6
-18 17 -33 24 -33 7 0 18 15 24 33 l11 32 -3 -32 c-2 -33 -2 -33 40 -33 34 0
42 3 38 15 -4 11 0 15 16 15 16 0 20 -4 16 -15 -4 -11 2 -15 27 -15 19 0 27 3
20 8 -7 4 -22 29 -33 55 -12 26 -24 47 -28 47 -5 0 -18 -22 -29 -50 -28 -66
-46 -66 -41 0 2 40 0 50 -12 50 -9 0 -22 -16 -30 -37 l-14 -38 -14 38 c-9 21
-21 37 -31 37 -13 0 -16 -11 -16 -55z m195 5 c0 -5 -4 -10 -10 -10 -5 0 -10 5
-10 10 0 6 5 10 10 10 6 0 10 -4 10 -10z"/>
<path d="M1600 1011 c0 -27 -3 -57 -7 -67 -6 -15 -2 -16 31 -11 50 8 66 23 66
63 0 37 -29 64 -67 64 -21 0 -23 -5 -23 -49z m67 1 c7 -29 -6 -55 -31 -60 -13
-3 -16 5 -16 41 0 24 3 46 6 50 12 11 34 -6 41 -31z"/>
<path d="M1710 1011 c0 -27 -3 -57 -6 -66 -6 -14 0 -16 36 -13 24 2 45 9 48
16 3 9 -3 11 -22 6 -22 -5 -26 -3 -26 16 0 17 4 21 20 17 13 -3 20 0 20 9 0 8
-10 14 -26 14 -19 0 -25 4 -22 18 3 11 12 16 26 15 12 -2 22 2 22 7 0 6 -16
10 -35 10 l-35 0 0 -49z"/>
<path d="M1845 1041 c3 -10 1 -37 -4 -60 l-9 -41 60 0 c52 0 59 2 48 15 -7 8
-11 34 -8 60 3 38 0 45 -15 45 -14 0 -16 -5 -11 -25 5 -21 3 -25 -16 -25 -18
0 -21 4 -18 25 4 20 1 25 -14 25 -14 0 -18 -5 -13 -19z m63 -68 c-2 -10 -10
-18 -18 -18 -8 0 -16 8 -18 18 -2 12 3 17 18 17 15 0 20 -5 18 -17z"/>
<path d="M1966 1045 c-20 -20 -21 -78 -2 -94 25 -21 68 -9 78 21 19 57 -37
111 -76 73z m52 -44 c-2 -25 -8 -37 -20 -39 -15 -3 -18 4 -18 36 0 44 6 53 27
45 9 -4 13 -17 11 -42z"/>
<path d="M2058 1001 c-3 -59 -2 -61 21 -61 19 0 21 3 12 14 -7 8 -11 27 -9 43
3 26 4 26 23 -15 28 -59 43 -54 47 18 2 43 -1 60 -9 60 -8 0 -13 -14 -13 -36
l0 -37 -22 33 c-36 53 -46 49 -50 -19z"/>
<path d="M2168 1001 l-3 -61 36 0 c43 0 59 15 59 54 0 43 -11 56 -52 63 l-36
5 -4 -61z m67 19 c9 -27 -3 -60 -21 -60 -10 0 -14 12 -14 40 0 43 23 57 35 20z"/>
<path d="M2280 1003 l5 -58 35 0 35 0 5 58 c3 36 1 57 -5 57 -6 0 -12 -21 -13
-47 -2 -53 -5 -58 -28 -49 -12 5 -15 16 -12 51 2 35 0 45 -12 45 -12 0 -14
-10 -10 -57z"/>
<path d="M2387 1021 c3 -21 0 -47 -6 -59 -11 -20 -9 -21 60 -21 58 0 70 3 65
14 -4 11 2 15 20 15 20 0 25 -4 20 -15 -5 -14 4 -15 57 -13 59 3 62 4 65 31 2
15 0 27 -5 27 -17 1 -45 29 -38 40 5 8 11 8 21 -1 18 -14 32 -3 17 12 -7 7
-23 9 -37 5 -32 -8 -35 -40 -6 -58 23 -15 27 -38 5 -38 -8 0 -15 5 -15 10 0 6
-4 10 -10 10 -5 0 -10 -8 -10 -17 0 -26 -15 -4 -35 50 -10 26 -21 47 -25 47
-4 0 -17 -22 -28 -50 -23 -54 -35 -61 -52 -30 -7 14 -7 20 0 20 5 0 10 9 10
20 0 21 -27 40 -58 40 -17 0 -19 -5 -15 -39z m53 4 c0 -8 -7 -15 -15 -15 -8 0
-15 7 -15 15 0 8 7 15 15 15 8 0 15 -7 15 -15z m94 -20 c3 -9 0 -15 -9 -15 -9
0 -12 6 -9 15 4 8 7 15 9 15 2 0 5 -7 9 -15z m-104 -48 c0 -5 -4 -5 -10 -2 -5
3 -10 14 -10 23 0 15 2 15 10 2 5 -8 10 -19 10 -23z"/>
<path d="M2030 680 c0 -27 5 -43 15 -47 19 -7 22 -5 30 28 4 18 1 31 -10 43
-26 25 -35 19 -35 -24z"/>
<path d="M2170 710 c-9 -16 -8 -20 5 -20 8 0 15 9 15 20 0 11 -2 20 -5 20 -2
0 -9 -9 -15 -20z"/>
</g>
</svg>
