<?xml version="1.0" standalone="no"?>
<!DOCTYPE svg PUBLIC "-//W3C//DTD SVG 20010904//EN"
 "http://www.w3.org/TR/2001/REC-SVG-20010904/DTD/svg10.dtd">
<svg version="1.0" xmlns="http://www.w3.org/2000/svg"
 width="428.000000pt" height="428.000000pt" viewBox="0 0 428.000000 428.000000"
 preserveAspectRatio="xMidYMid meet">
<metadata>
Created by potrace 1.16, written by Peter Selinger 2001-2019
</metadata>
<g transform="translate(0.000000,428.000000) scale(0.100000,-0.100000)"
fill="#000000" stroke="none">
<path d="M2025 3829 c-480 -62 -872 -569 -998 -1289 -29 -171 -32 -596 -4
-765 112 -682 465 -1183 911 -1295 107 -27 265 -27 372 0 285 71 541 309 715
665 148 303 219 627 219 1000 0 533 -158 1013 -445 1348 -206 241 -502 370
-770 336z m220 -34 c175 -31 332 -119 480 -269 583 -591 659 -1825 157 -2571
-152 -226 -344 -378 -557 -440 -72 -22 -112 -27 -200 -28 -231 -1 -418 84
-610 277 -493 496 -637 1480 -329 2249 173 430 472 721 803 781 102 19 152 19
256 1z"/>
<path d="M1965 3776 c-432 -99 -787 -583 -894 -1216 -153 -905 216 -1818 816
-2022 216 -73 461 -38 662 96 332 221 571 677 637 1213 20 171 15 535 -10 683
-106 618 -419 1082 -823 1222 -75 27 -105 31 -208 34 -78 3 -141 -1 -180 -10z
m310 -23 c265 -58 518 -282 685 -604 33 -64 60 -119 60 -123 0 -3 -34 -6 -75
-6 -59 0 -75 -3 -75 -15 0 -11 16 -15 68 -17 l67 -3 0 -115 0 -115 -62 -3
c-46 -2 -61 -6 -57 -16 3 -9 -6 -16 -27 -20 -17 -3 -397 -6 -843 -6 l-811 0 3
148 3 147 49 103 c85 177 208 347 322 444 97 83 233 162 318 184 103 27 138
32 215 32 50 1 122 -6 160 -15z m-699 -1059 c27 -7 33 -38 8 -48 -9 -3 -85 -6
-170 -5 l-154 1 0 27 0 28 146 1 c80 1 156 -1 170 -4z m1370 0 c18 -5 24 -12
22 -28 -3 -20 -8 -21 -166 -23 -134 -1 -164 1 -169 13 -14 36 1 41 147 42 78
1 153 -1 166 -4z m-596 -112 c-22 -34 -40 -65 -40 -71 0 -5 -10 -31 -21 -58
-12 -26 -23 -55 -24 -63 -5 -42 -28 -90 -43 -90 -12 0 -13 -3 -5 -11 12 -12
-11 -59 -54 -112 -13 -16 -23 -37 -23 -48 0 -10 -5 -19 -11 -19 -6 0 -8 9 -3
23 4 12 7 57 6 99 -1 43 2 79 8 83 5 3 10 21 10 40 0 18 3 41 7 50 5 15 8 14
19 -6 13 -22 13 -21 8 18 -7 44 18 103 43 103 7 0 13 6 13 13 0 7 12 25 28 39
27 27 114 80 120 74 1 -2 -15 -31 -38 -64z m-807 42 c22 -4 27 -11 25 -27 -3
-21 -8 -22 -135 -24 l-133 -1 0 27 0 27 108 2 c59 1 120 -1 135 -4z m1370 0
c22 -4 27 -11 25 -27 -3 -21 -8 -22 -136 -24 -137 -1 -153 3 -139 40 5 13 199
22 250 11z m-1401 -70 c16 -5 17 -38 18 -470 0 -308 -3 -464 -10 -464 -5 0
-10 -4 -10 -10 0 -5 14 -10 30 -10 25 0 30 -4 30 -24 0 -22 -5 -25 -52 -30
-29 -4 -91 -5 -138 -4 l-85 3 -5 30 c-4 17 -11 29 -18 28 -29 -6 -46 84 -20
114 6 7 28 13 49 13 28 0 39 4 39 15 0 10 -11 15 -35 15 -19 0 -44 8 -55 17
-27 23 -26 69 1 84 20 10 20 12 -14 34 -38 26 -55 69 -36 91 6 8 26 21 44 30
25 12 31 20 28 38 -5 26 29 58 53 49 11 -4 14 8 14 55 0 38 -4 62 -12 64 -10
4 -10 13 0 45 7 22 12 96 12 165 l0 125 77 1 c43 1 85 -1 95 -4z m1380 0 c17
-5 18 -35 20 -472 1 -257 3 -447 5 -422 3 24 10 48 16 52 9 6 9 10 0 16 -19
12 -11 106 10 110 23 5 21 17 -4 34 -18 11 -20 20 -14 46 3 18 16 37 28 44
l22 12 -25 6 c-20 5 -25 12 -25 39 -1 33 11 49 33 45 6 -1 17 -2 23 -3 7 -1
10 -17 7 -41 -2 -22 0 -40 5 -40 4 0 21 -14 37 -30 26 -26 28 -33 18 -55 -6
-14 -23 -30 -38 -37 -21 -9 -26 -17 -22 -37 8 -42 20 -52 48 -39 35 16 59 -8
45 -45 -13 -33 -44 -36 -64 -6 -13 18 -18 19 -38 8 l-23 -12 22 -8 c53 -20 69
-67 30 -84 -14 -6 -24 -21 -26 -37 -3 -29 11 -37 25 -15 5 8 10 1 13 -21 6
-37 22 -44 30 -13 5 21 5 21 33 -2 l28 -22 -44 -125 c-53 -151 -142 -334 -202
-415 -24 -33 -51 -70 -60 -82 l-16 -23 -668 0 -668 0 -20 23 c-56 62 -202 315
-226 392 -3 11 -20 60 -36 108 -37 104 -37 108 -10 125 12 8 18 9 14 3 -4 -8
207 -11 726 -11 570 0 730 3 721 12 -15 15 -17 178 -2 178 6 0 10 5 10 11 0 5
-4 8 -9 4 -5 -3 -12 -1 -16 5 -4 6 11 10 39 10 83 0 76 -36 76 415 l0 402 77
1 c43 1 86 -1 95 -4z m-390 -709 c3 -13 3 -27 0 -30 -8 -8 -662 -6 -662 3 0 4
-3 17 -6 30 l-6 22 335 0 335 0 4 -25z m2 -77 c13 -50 26 -48 -313 -48 -343 0
-331 -2 -331 51 0 18 11 19 319 19 l319 0 6 -22z m6 -103 l0 -35 -305 0 c-168
0 -305 1 -305 3 0 1 -4 17 -9 35 l-10 32 315 0 314 0 0 -35z m-470 -895 c0
-16 5 -30 11 -30 7 0 10 12 7 30 -3 20 0 30 8 30 20 0 34 -33 23 -53 -7 -12
-6 -22 5 -33 32 -32 7 -94 -38 -94 -54 0 -83 53 -52 96 10 13 11 23 4 31 -6 8
-6 19 2 32 16 30 30 26 30 -9z"/>
<path d="M1885 2860 c0 -59 3 -70 17 -70 20 0 32 16 18 25 -5 3 -10 21 -9 38
l0 32 22 -42 c11 -24 25 -43 29 -43 5 0 17 19 28 43 l19 42 0 -37 c1 -21 -4
-38 -10 -38 -5 0 -7 -4 -4 -10 3 -5 19 -10 35 -10 16 0 32 5 35 10 3 6 1 10
-4 10 -15 0 -14 93 1 108 9 9 5 12 -20 12 -29 0 -35 -5 -52 -42 l-19 -42 -16
42 c-14 34 -22 42 -44 42 -26 0 -26 -1 -26 -70z"/>
<path d="M2147 2870 c-31 -73 -31 -75 -9 -75 11 0 16 6 14 18 -2 12 4 17 18
17 17 0 20 -4 15 -20 -6 -18 -2 -19 70 -16 75 2 94 11 95 43 0 12 -4 16 -50
53 -20 15 -21 19 -8 20 9 0 20 -4 23 -10 10 -17 25 -11 25 10 0 16 -7 20 -33
20 -61 0 -78 -49 -27 -78 16 -9 30 -23 30 -29 0 -21 -24 -15 -39 10 l-15 22
-7 -25 c-6 -23 -9 -19 -34 38 -16 34 -31 62 -35 62 -4 0 -18 -27 -33 -60z"/>
<path d="M2810 2910 c-29 -29 -26 -74 6 -99 35 -28 69 -26 99 4 30 30 31 54 4
89 -26 33 -79 36 -109 6z"/>
<path d="M1428 1415 c-3 -50 -1 -55 17 -55 18 0 20 6 17 50 -5 64 13 66 31 3
8 -27 20 -48 27 -48 7 0 20 20 29 44 21 59 41 65 41 14 0 -22 -5 -44 -12 -51
-9 -9 3 -12 55 -12 l67 0 -5 28 -6 27 16 -27 c9 -16 23 -28 31 -28 14 0 14 3
-1 27 -12 18 -14 28 -7 31 18 6 14 39 -4 46 -9 3 -25 6 -37 6 -20 0 -22 -4
-19 -47 3 -47 3 -48 -27 -50 -25 -2 -31 2 -31 18 0 16 4 19 20 14 14 -5 20 -2
20 10 0 12 -6 15 -20 10 -16 -5 -20 -2 -20 15 0 17 5 21 20 17 11 -3 20 -1 20
4 0 5 -25 9 -57 9 -31 0 -54 -3 -50 -6 8 -8 -14 -65 -23 -59 -5 3 -11 19 -15
35 -6 26 -11 30 -40 30 -33 0 -33 0 -37 -55z"/>
<path d="M1709 1205 l-25 -55 23 0 c16 0 21 4 17 15 -4 11 0 15 16 15 15 0 20
-4 16 -15 -4 -12 7 -14 67 -12 l72 2 5 45 c4 33 10 46 23 48 14 2 17 -5 17
-42 0 -26 -5 -46 -12 -49 -7 -3 3 -6 22 -6 26 -1 31 2 22 11 -7 7 -12 30 -12
51 0 34 3 39 20 34 11 -3 20 -1 20 4 0 5 -27 9 -60 9 l-60 0 0 -44 c0 -76 -41
-73 -43 3 -3 62 -27 54 -27 -9 0 -27 -4 -50 -9 -50 -4 0 -18 23 -29 50 -12 28
-25 50 -29 50 -4 0 -20 -25 -34 -55z"/>
<path d="M2387 1021 c3 -21 0 -47 -6 -59 -11 -20 -9 -21 60 -21 58 0 70 3 65
14 -4 11 2 15 20 15 20 0 25 -4 20 -15 -5 -14 4 -15 57 -13 59 3 62 4 65 31 2
15 0 27 -5 27 -17 1 -45 29 -38 40 5 8 11 8 21 -1 18 -14 32 -3 17 12 -7 7
-23 9 -37 5 -32 -8 -35 -40 -6 -58 23 -15 27 -38 5 -38 -8 0 -15 5 -15 10 0 6
-4 10 -10 10 -5 0 -10 -8 -10 -17 0 -26 -15 -4 -35 50 -10 26 -21 47 -25 47
-4 0 -17 -22 -28 -50 -23 -54 -35 -61 -52 -30 -7 14 -7 20 0 20 5 0 10 9 10
20 0 21 -27 40 -58 40 -17 0 -19 -5 -15 -39z"/>
</g>
</svg>
